<svg xmlns="http://www.w3.org/2000/svg" x="0px" y="0px" width="400px" height="300px" viewBox="0 0 390 290" enable-background="new 0 0 390 290" xml:space="preserve">
<path fill="rgba(22, 184, 186, 0.15)" d="M109.688,17.616c43.471-20.77,98.766-18.332,136.802,11.238c17.754,13.802,31.029,32.437,43.784,50.957
	c20.845,30.267,41.02,60.995,60.506,92.154c13.195,21.1,26.169,42.594,34.396,66.081c1.422,4.061,2.69,8.587,1.055,12.567
	c-1.445,3.518-4.84,5.792-8.138,7.685c-33.533,19.245-74.059,20.483-112.715,21.227c-45.011,0.866-90.023,1.733-135.034,2.599
	c-29.348,0.565-81.04,12.262-106.009-8.002c-42.154-34.21-12.105-140.02,7.293-177.76C47.969,64.57,75.571,31.262,109.688,17.616z"></path>
</svg>