<svg x="0px" y="0px" width="370px" height="200px" viewBox="0 0 370 200" enable-background="new 0 0 370 200" xml:space="preserve" xmlns="http://www.w3.org/2000/svg">
<g>
<g>
<path d="M268.514,107.176l-32.18-23.621l-35.942,19.665l-0.358-0.454l-0.451,0.119l-13.909-47.317l-41.671-23.902l222.65-24.61
			l0.121,0.652l0.091-0.043l0.635,0.906L268.514,107.176L268.514,107.176z M237.422,82.96l30.981,22.741l96.014-95.643
			l-137.98,64.839l11.099,8.001L237.422,82.96L237.422,82.96z M189.405,54.838l11.018,46.719l24.696-27.283l0.102-0.048
			L364.494,8.78L189.405,54.838L189.405,54.838z M225.801,75.195l-23.03,25.442l32.563-17.816l-9.58-7.032l0.632-0.869
			L225.801,75.195L225.801,75.195z M147.548,32.405l39.077,22.414l8.202,27.902l-6.766-28.691l0.53-0.139l170.61-44.88
			L147.548,32.405L147.548,32.405z"></path>
</g>
<g>
<path d="M2.873,192.943l-0.373-1.06c0.307-0.108,31.112-11.02,62.501-28.563c14.266-7.973,26.488-16.087,36.471-24.204
			c-24.896-1.354-40.18-13.118-48.775-23.131C42.573,104.192,36.409,88.874,35.34,72.854c-1.025-15.368,2.902-29.081,10.776-37.622
			c5.942-6.445,13.923-9.635,23.072-9.224c10.333,0.463,21.991,5.359,34.649,14.553c23.029,16.726,33.335,34.594,30.633,53.108
			c-1.867,12.792-9.974,25.977-24.095,39.19c-1.865,1.745-3.835,3.491-5.908,5.238c23.077,0.551,54.265-7.894,95.436-35.622
			l0.628,0.932c-34.979,23.558-66.439,35.615-93.506,35.836c-1.315,0.011-2.605-0.007-3.871-0.051
			c-10.214,8.428-22.824,16.85-37.618,25.117C34.063,181.896,3.181,192.835,2.873,192.943L2.873,192.943z M67.637,27.097
			c-8.182,0-15.311,3.058-20.694,8.897c-7.666,8.315-11.486,21.723-10.481,36.785c1.053,15.779,7.122,30.864,17.089,42.475
			c7.453,8.682,22.906,21.633,49.233,22.786c2.414-2.003,4.692-4.006,6.83-6.006c13.927-13.033,21.916-25.996,23.746-38.528
			c2.637-18.068-7.517-35.576-30.181-52.036C90.7,32.408,79.247,27.583,69.138,27.13C68.634,27.108,68.133,27.097,67.637,27.097
			L67.637,27.097z"></path>
</g>
</g>
</svg>