<svg version="1.1" class="" xmlns="http://www.w3.org/2000/svg" xmlns:xlink="http://www.w3.org/1999/xlink" x="0" y="0" width="100px" height="100px" viewBox="0 0 100 100" enable-background="new 0 0 100 100" xml:space="preserve"><g>
<path d="M54.245,36.17c3.366-1.359,6.297-2.613,9.481-3.111c1.508-0.236,3.01-0.304,4.505-0.153
		c2.906,0.293,3.715,2.166,1.976,4.676c-1.876,2.709-4.089,5.173-6.685,7.183c-3.639,2.818-7.317,5.636-11.936,6.79
		c-1.985,0.496-3.971,0.883-6.013,1.055c-2.771,0.233-3.498,0.05-5.84-1.363c-1.524-0.919-3.057-1.8-4.289-3.111
		c-0.855-0.91-1.847-0.86-2.939-0.504c-3.131,1.021-6.361,1.605-9.612,2.059c-4.328,0.605-8.513-0.176-12.501-1.77
		c-3.966-1.585-5.766-4.832-5.885-9.003c-0.119-4.136,1.317-7.85,3.501-11.269c3.94-6.166,8.46-11.884,14.503-16.109
		c5.665-3.961,11.51-7.683,18.287-9.587c1.891-0.531,3.818-0.924,5.751-1.016c5.92-0.282,12.016,2.891,12.358,10.946
		c0.17,4.004,0.053,7.982-1.054,11.873c-0.492,1.728-0.739,3.449-0.194,5.236c0.434,1.422-0.083,2.592-1.209,3.544
		C55.449,33.386,54.444,34.258,54.245,36.17z M19.768,48.31c4.294,0.013,7.863-0.598,11.344-1.731
		c2.754-0.896,2.71-0.915,2.706-3.875c-0.009-7.505,3.08-13.138,9.981-16.491c3.275-1.591,6.574-1.947,10.038-0.684
		c1.705,0.621,1.942,0.542,2.418-1.267c1.222-4.651,2.042-9.352,1.091-14.182c-0.898-4.561-4.249-7.417-8.924-7.596
		c-2.683-0.103-5.28,0.259-7.866,1.041c-4.293,1.298-8.065,3.55-11.906,5.793c-8.164,4.766-14.535,11.236-19.427,19.25
		c-1.778,2.913-2.944,5.963-3.14,9.469c-0.323,5.75,3.285,8.55,7.717,9.531C15.954,48.046,18.154,48.433,19.768,48.31z
		 M49.953,25.93c-0.48,0.054-1.307,0.021-2.053,0.252c-5.918,1.836-10.484,5.098-11.926,11.562c-0.231,1.036-0.47,2.071-0.642,3.118
		c-0.114,0.692-0.225,1.416-0.14,2.1c0.13,1.039,0.744,1.596,1.863,1.232c0.418-0.137,0.825-0.324,1.215-0.53
		c4.152-2.199,8.071-4.758,11.747-7.686c0.343-0.273,0.942-0.658,0.761-0.995c-0.851-1.586,0.412-1.713,1.326-2.128
		c1.634-0.742,3.168-3.142,2.795-4.64c-0.491-1.973-2.312-1.897-3.836-2.214C50.806,25.946,50.534,25.963,49.953,25.93z
		 M51.456,44.557c-0.001,1.288,0.301,2.456,1.126,3.475c0.783,0.968,1.636,1.194,2.787,0.593c5.278-2.756,9.5-6.762,13.328-11.226
		c0.55-0.642,1.255-1.507,0.793-2.381c-0.434-0.821-1.515-0.768-2.372-0.931c-0.171-0.032-0.357-0.031-0.529-0.003
		c-3.944,0.644-7.885,1.326-11.314,3.571C52.802,39.274,51.558,41.613,51.456,44.557z M51.665,37.429
		c-0.593-0.377-0.91-0.178-1.174,0.03c-4.054,3.188-8.367,5.96-12.986,8.268c-1.27,0.634-1.258,1.236-0.297,2.233
		c1.557,1.615,3.843,1.679,5.678,2.708c0.49,0.275,1.021-0.108,1.38-0.547C47.413,46.265,49.703,41.93,51.665,37.429z M49.848,45.24
		c-1.637,1.84-3.088,3.3-3.626,5.55c2.385,0.333,4.341-0.107,6.331-1.348C51.477,48.167,50.694,46.914,49.848,45.24z"></path>
<path d="M77.342,41.513c3.112,0.584,5.34-1.078,7.619-2.592c0.547-0.364,0.591-0.832,0.186-1.355
		c-0.162-0.209-0.325-0.431-0.426-0.673c-0.372-0.896-0.916-1.846,0.042-2.676c0.792-0.686,2.466-0.194,3.328,0.796
		c0.565,0.648,0.314,2.005,1.424,2.053c1.345,0.059,2.576-0.589,3.72-1.289c0.929-0.568,1.506-1.488,2.192-2.299
		c0.241-0.286,0.574-0.461,0.94-0.29c0.377,0.175,0.407,0.537,0.31,0.902c-0.195,0.734-0.84,1.659,0.201,2.085
		c1.056,0.432,1.502-0.655,2.014-1.332c2.149-2.842,4.874-5.143,7.251-7.771c0.176-0.195,0.388-0.371,0.614-0.504
		c0.541-0.319,1.137-0.658,1.715-0.168c0.596,0.506,0.339,1.142,0.039,1.699c-1.706,3.168-3.794,6.077-6.965,7.87
		c-3.334,1.885-5.36,4.821-7.227,7.963c-0.173,0.292-0.242,0.648-0.338,0.98c-0.016,0.057,0.074,0.144,0.227,0.417
		c1.503-0.38,2.837-1.19,4.097-2.13c0.944-0.704,1.965-1.198,3.121-1.416c0.617-0.116,1.316-0.301,1.778,0.194
		c1.145,1.228,2.247,0.603,3.368,0.046c1.51-0.749,3-1.539,4.519-2.268c0.467-0.225,1.059-0.458,1.475,0.049
		c0.498,0.607,0.023,1.176-0.267,1.699c-0.239,0.432-0.545,1.185-1.138,0.691c-1.247-1.039-2.177-0.142-3.131,0.371
		c-1.097,0.59-2.198,1.149-3.37,1.573c-1.05,0.38-2.089,0.584-2.991-0.28c-0.738-0.707-1.423-0.458-2.173-0.055
		c-2.497,1.342-4.807,3.023-7.462,4.08c-0.794,0.316-1.162,1.06-1.566,1.75c-3.051,5.207-6.4,10.224-9.786,15.214
		c-1.791,2.64-3.643,5.244-5.574,7.782c-1.621,2.131-3.625,3.898-5.895,5.331c-3.139,1.982-5.986,1.308-7.935-1.855
		c-1.114-1.808-1.531-3.842-1.271-5.885c0.98-7.677,3.977-14.294,10.344-19.093c3.329-2.509,7.216-3.294,11.193-3.844
		c1.004-0.139,1.991,0.066,2.519,1.082c0.474,0.913,0.041,1.737-0.459,2.485c-0.89,1.332-2.083,2.354-3.288,3.358
		c-0.742-0.728-0.196-1.116,0.09-1.487c0.432-0.561,0.962-1.045,1.4-1.601c0.379-0.481,0.837-1.012,0.556-1.674
		c-0.303-0.714-1.034-0.622-1.63-0.588c-3.624,0.208-6.975,1.293-9.921,3.423c-6.467,4.675-9.06,11.363-9.699,19.022
		c-0.098,1.169,0.184,2.3,0.659,3.366c1.182,2.651,3.794,3.56,6.418,2.345c3.037-1.407,5.001-3.954,6.885-6.517
		c5.412-7.365,10.294-15.079,14.875-22.989c1.194-2.063,2.701-3.943,4.043-5.922c0.497-0.733,0.923-1.515,1.402-2.261
		c0.415-0.645,0.628-1.269,0.043-1.936c-0.644-0.733-1.361-0.729-2.139-0.254c-1.543,0.941-3.23,1.445-5.014,1.657
		c-1.206,0.144-2.084,0.951-3.052,1.556c-2.998,1.875-6.089,3.308-9.776,2.472c-1.112-0.252-2.066,0.391-3.069,0.707
		c-1.036,0.327-2.057,0.567-3.106,0.064c-0.585-0.281-1.098-0.639-1.117-1.355c-0.02-0.702,0.434-1.133,1-1.451
		c0.797-0.447,1.666-0.644,2.565-0.522c0.845,0.115,1.211-0.225,1.602-0.979c1.173-2.26,3.082-3.603,5.628-3.984
		c0.822-0.123,1.65-0.112,2.163,0.647c0.551,0.814-0.011,1.525-0.404,2.205C79.905,39.556,78.486,40.358,77.342,41.513z
		 M74.728,39.802c0.094,0.483,0.374,0.773,0.876,0.801c0.993,0.055,3.808-2.047,4.062-3.024c0.103-0.4-0.062-0.675-0.421-0.829
		C77.844,36.149,74.633,38.323,74.728,39.802z M106.103,29.596c-1.206,0.472-1.682,1.142-2.383,2.39
		C105,31.34,105.526,30.722,106.103,29.596z M70.882,41.727c-0.391-0.007-0.727,0.147-0.827,0.52
		c-0.084,0.311,0.186,0.506,0.472,0.447c0.233-0.048,0.502-0.203,0.632-0.394C71.325,42.056,71.187,41.817,70.882,41.727z
		 M87.142,36.188c-0.074-0.444-0.354-0.763-0.822-0.829c-0.308-0.044-0.458,0.212-0.391,0.501c0.081,0.352,0.31,0.627,0.665,0.727
		C86.876,36.667,87.077,36.528,87.142,36.188z"></path>
<path d="M125.5,37.612c-1.561,0.965-2.73,0.11-4.003-0.033C122.628,35.917,123.012,35.915,125.5,37.612z"></path>
</g></svg>